<?xml version="1.0" encoding="UTF-8"?>
<svg id="Layer_2" data-name="Layer 2" xmlns="http://www.w3.org/2000/svg" viewBox="0 0 149.52 56.11">
  <defs>
    <style>
      .cls-1 {
        fill: #fdfdfd;
        stroke-width: 0px;
      }
    </style>
  </defs>
  <g id="Layer_1-2" data-name="Layer 1">
    <g>
      <path class="cls-1" d="M29.96,2.51c-3.35-1.67-7.22-2.51-11.6-2.51H0v40.41h18.36c4.39,0,8.26-.84,11.6-2.51s5.97-4.02,7.85-7.04c1.89-3.02,2.83-6.57,2.83-10.65s-.94-7.63-2.83-10.65c-1.89-3.02-4.5-5.37-7.85-7.04ZM29.53,26.87c-1.1,1.91-2.64,3.37-4.62,4.39-1.98,1.02-4.32,1.53-7.01,1.53h-8.49V7.62h8.49c2.69,0,5.03.51,7.01,1.53,1.98,1.02,3.52,2.47,4.62,4.36,1.1,1.89,1.65,4.12,1.65,6.7s-.55,4.76-1.65,6.67Z"/>
      <polygon class="cls-1" points="52.19 23.55 70.95 23.55 70.95 16.22 52.19 16.22 52.19 7.5 73.43 7.5 73.43 0 42.89 0 42.89 40.41 74.18 40.41 74.18 32.91 52.19 32.91 52.19 23.55"/>
      <path class="cls-1" d="M103.02,22.34c0,3.81-.79,6.57-2.37,8.28-1.58,1.71-3.79,2.57-6.64,2.57s-5-.86-6.58-2.57c-1.58-1.71-2.37-4.47-2.37-8.28V0h-9.41v22.57c0,5.97,1.62,10.55,4.85,13.74,3.23,3.2,7.72,4.79,13.45,4.79s10.16-1.6,13.39-4.79c3.23-3.19,4.85-7.77,4.85-13.74V0h-9.18v22.34Z"/>
      <path class="cls-1" d="M126.54,32.79l22.12-26.73V0h-34v7.62h21.71l-22.17,26.73v6.06h23.57c-4.32,5.23-8.65,10.47-12.97,15.7,1.22,0,2.43,0,3.65-.01,7.03-5.23,14.05-10.46,21.08-15.69h0v-7.62h-22.99Z"/>
    </g>
  </g>
</svg>